<svg width="129" height="41" viewBox="0 0 129 41" fill="none" xmlns="http://www.w3.org/2000/svg">
<path d="M2.75641 15.0843H30.8718C31.9794 15.0843 32.8772 15.9822 32.8772 17.0897V25.9102C32.8772 31.5848 28.2771 36.1849 22.6026 36.1849H11.0257C5.35111 36.1849 0.75097 31.5848 0.75097 25.9102V17.0897C0.75097 15.9822 1.64884 15.0843 2.75641 15.0843Z" stroke="url(#paint0_linear_17_1659)" stroke-width="1.50194"/>
<path d="M28.9423 39.3407C33.4673 39.3407 37.1356 35.6724 37.1356 31.1474C37.1356 26.6224 33.4673 22.9541 28.9423 22.9541C24.4173 22.9541 20.749 26.6224 20.749 31.1474C20.749 35.6724 24.4173 39.3407 28.9423 39.3407Z" fill="#1F2D44" stroke="url(#paint1_linear_17_1659)" stroke-width="1.50194"/>
<mask id="path-3-inside-1_17_1659" fill="white">
<path fill-rule="evenodd" clip-rule="evenodd" d="M7.99364 -6.10352e-05C7.23248 -6.10352e-05 6.61543 0.616982 6.61543 1.37814V3.85891H6.33979C3.14291 3.85891 0.551331 6.45049 0.551331 9.64737C0.551331 11.0175 1.66201 12.1281 3.0321 12.1281H12.4039L12.4223 12.1281H21.5H24.8077H30.8718C32.2418 12.1281 33.3525 11.0174 33.3525 9.64733C33.3525 6.45045 30.7609 3.85887 27.5641 3.85887H26.7371H26.4615V1.37814C26.4615 0.616982 25.8445 -6.10352e-05 25.0833 -6.10352e-05C24.3222 -6.10352e-05 23.7051 0.616982 23.7051 1.37814V3.85887H21.5H18.1923V1.37814C18.1923 0.616982 17.5753 -6.10352e-05 16.8141 -6.10352e-05C16.0529 -6.10352e-05 15.4359 0.616982 15.4359 1.37814V3.85887H9.37184V1.37814C9.37184 0.616982 8.7548 -6.10352e-05 7.99364 -6.10352e-05Z"/>
</mask>
<path d="M6.61543 3.85891V5.36085H8.11737V3.85891H6.61543ZM12.4039 12.1281L12.4039 13.6301L12.4072 13.6301L12.4039 12.1281ZM12.4223 12.1281L12.4223 10.6262L12.419 10.6262L12.4223 12.1281ZM26.4615 3.85887H24.9596V5.36081H26.4615V3.85887ZM23.7051 3.85887V5.36081H25.2071V3.85887H23.7051ZM18.1923 3.85887H16.6904V5.36081H18.1923V3.85887ZM15.4359 3.85887V5.36081H16.9378V3.85887H15.4359ZM9.37184 3.85887H7.8699V5.36081H9.37184V3.85887ZM8.11737 1.37814C8.11737 1.44648 8.06197 1.50188 7.99364 1.50188V-1.502C6.40298 -1.502 5.11349 -0.212517 5.11349 1.37814H8.11737ZM8.11737 3.85891V1.37814H5.11349V3.85891H8.11737ZM6.33979 5.36085H6.61543V2.35697H6.33979V5.36085ZM2.05327 9.64737C2.05327 7.27999 3.97241 5.36085 6.33979 5.36085V2.35697C2.31341 2.35697 -0.95061 5.62099 -0.95061 9.64737H2.05327ZM3.0321 10.6262C2.49151 10.6262 2.05327 10.188 2.05327 9.64737H-0.95061C-0.95061 11.847 0.83251 13.6301 3.0321 13.6301V10.6262ZM12.4039 10.6262H3.0321V13.6301H12.4039V10.6262ZM12.419 10.6262L12.4006 10.6262L12.4072 13.6301L12.4256 13.63L12.419 10.6262ZM21.5 10.6262H12.4223V13.63H21.5V10.6262ZM24.8077 10.6262H21.5V13.63H24.8077V10.6262ZM30.8718 10.6262H24.8077V13.63H30.8718V10.6262ZM31.8506 9.64733C31.8506 10.1879 31.4123 10.6262 30.8718 10.6262V13.63C33.0713 13.63 34.8545 11.8469 34.8545 9.64733H31.8506ZM27.5641 5.36081C29.9314 5.36081 31.8506 7.27995 31.8506 9.64733H34.8545C34.8545 5.62095 31.5904 2.35692 27.5641 2.35692V5.36081ZM26.7371 5.36081H27.5641V2.35692H26.7371V5.36081ZM26.4615 5.36081H26.7371V2.35692H26.4615V5.36081ZM24.9596 1.37814V3.85887H27.9635V1.37814H24.9596ZM25.0833 1.50188C25.015 1.50188 24.9596 1.44648 24.9596 1.37814H27.9635C27.9635 -0.212518 26.674 -1.502 25.0833 -1.502V1.50188ZM25.2071 1.37814C25.2071 1.44648 25.1517 1.50188 25.0833 1.50188V-1.502C23.4927 -1.502 22.2032 -0.212517 22.2032 1.37814H25.2071ZM25.2071 3.85887V1.37814H22.2032V3.85887H25.2071ZM21.5 5.36081H23.7051V2.35692H21.5V5.36081ZM18.1923 5.36081H21.5V2.35692H18.1923V5.36081ZM16.6904 1.37814V3.85887H19.6942V1.37814H16.6904ZM16.8141 1.50188C16.7458 1.50188 16.6904 1.44648 16.6904 1.37814H19.6942C19.6942 -0.212518 18.4048 -1.502 16.8141 -1.502V1.50188ZM16.9378 1.37814C16.9378 1.44648 16.8824 1.50188 16.8141 1.50188V-1.502C15.2234 -1.502 13.934 -0.212516 13.934 1.37814H16.9378ZM16.9378 3.85887V1.37814H13.934V3.85887H16.9378ZM9.37184 5.36081H15.4359V2.35692H9.37184V5.36081ZM7.8699 1.37814V3.85887H10.8738V1.37814H7.8699ZM7.99364 1.50188C7.9253 1.50188 7.8699 1.44648 7.8699 1.37814H10.8738C10.8738 -0.212517 9.5843 -1.502 7.99364 -1.502V1.50188Z" fill="url(#paint2_linear_17_1659)" mask="url(#path-3-inside-1_17_1659)"/>
<path d="M25.6346 27.8397L28.8826 35.6357L30.0357 32.2407L33.4307 31.0876L25.6346 27.8397Z" stroke="url(#paint3_linear_17_1659)" stroke-width="0.834411" stroke-linecap="round" stroke-linejoin="round"/>
<path d="M124.499 12.9012V15.9974H128.644V16.802H123.646V8.2691H128.583V9.07363H124.499V12.0967H128.278V12.9012H124.499Z" fill="white"/>
<path fill-rule="evenodd" clip-rule="evenodd" d="M128.782 15.8596V16.9398H123.508V8.13129H128.721V9.21145H124.637V11.9589H128.416V13.039H124.637V15.8596H128.782ZM124.499 15.9974V12.9012H128.278V12.0967H124.499V9.07363H128.583V8.26911H123.646V16.802H128.644V15.9974H124.499Z" fill="white"/>
<path d="M114.869 8.2691H120.964V9.07363H118.343V16.802H117.49V9.07363H114.869V8.2691Z" fill="white"/>
<path fill-rule="evenodd" clip-rule="evenodd" d="M114.731 8.13129H121.102V9.21145H118.481V16.9398H117.352V9.21145H114.731V8.13129ZM117.49 9.07363V16.802H118.343V9.07363H120.964V8.26911H114.869V9.07363H117.49Z" fill="white"/>
<path d="M113.649 16.802H112.747L111.955 14.7053H107.908L107.115 16.802H106.213L109.492 8.2691H110.37L113.649 16.802ZM109.931 9.32962L108.212 13.9008H111.65L109.931 9.32962Z" fill="white"/>
<path fill-rule="evenodd" clip-rule="evenodd" d="M113.85 16.9398H112.652L111.86 14.8431H108.003L107.211 16.9398H106.013L109.398 8.13129H110.465L113.85 16.9398ZM107.908 14.7053H111.955L112.747 16.802H113.649L110.37 8.26911H109.492L106.213 16.802H107.115L107.908 14.7053ZM108.213 13.9008H111.65L109.931 9.32962L108.213 13.9008ZM109.931 9.72122L108.412 13.763H111.451L109.931 9.72122Z" fill="white"/>
<path d="M97.1401 8.2691H100.431C101.589 8.2691 102.552 8.68356 103.308 9.51246C104.076 10.3292 104.454 11.3409 104.454 12.5355C104.454 13.7301 104.076 14.7419 103.308 15.5708C102.552 16.3875 101.589 16.802 100.431 16.802H97.1401V8.2691ZM97.9934 15.9974H100.431C101.37 15.9974 102.126 15.6683 102.723 14.9979C103.32 14.3274 103.625 13.5107 103.625 12.5355C103.625 11.5603 103.32 10.7436 102.723 10.0732C102.126 9.40275 101.37 9.07363 100.431 9.07363H97.9934V15.9974Z" fill="white"/>
<path fill-rule="evenodd" clip-rule="evenodd" d="M97.0023 8.13129H100.431C101.626 8.13129 102.626 8.5606 103.409 9.41883C104.203 10.2633 104.592 11.3095 104.592 12.5355C104.592 13.7622 104.203 14.8081 103.409 15.6645C102.626 16.5104 101.626 16.9398 100.431 16.9398H97.0023V8.13129ZM103.308 15.5708C104.076 14.7419 104.454 13.7301 104.454 12.5355C104.454 11.3409 104.076 10.3292 103.308 9.51247C102.552 8.68356 101.589 8.26911 100.431 8.26911H97.1401V16.802H100.431C101.589 16.802 102.552 16.3875 103.308 15.5708ZM98.1312 15.8596H100.431C101.333 15.8596 102.05 15.5457 102.62 14.9062C103.193 14.2626 103.487 13.4792 103.487 12.5355C103.487 11.5919 103.193 10.8084 102.62 10.1649C102.05 9.52533 101.333 9.21145 100.431 9.21145H98.1312V15.8596ZM100.431 15.9974C101.37 15.9974 102.126 15.6683 102.723 14.9979C103.32 14.3274 103.625 13.5107 103.625 12.5355C103.625 11.5604 103.32 10.7436 102.723 10.0732C102.126 9.40276 101.37 9.07363 100.431 9.07363H97.9934V15.9974H100.431Z" fill="white"/>
<path d="M88.3577 16.802V8.2691H89.211V16.802H88.3577Z" fill="white"/>
<path fill-rule="evenodd" clip-rule="evenodd" d="M88.2199 16.9398V8.13129H89.3488V16.9398H88.2199ZM88.3577 16.802H89.211V8.26911H88.3577V16.802Z" fill="white"/>
<path d="M81.7724 8.2691V15.9974H85.6731V16.802H80.9191V8.2691H81.7724Z" fill="white"/>
<path fill-rule="evenodd" clip-rule="evenodd" d="M81.9102 8.13129V15.8596H85.8109V16.9398H80.7812V8.13129H81.9102ZM81.7724 15.9974V8.26911H80.9191V16.802H85.6731V15.9974H81.7724Z" fill="white"/>
<path d="M78.3606 16.802H77.4586L76.6662 14.7053H72.6192L71.8269 16.802H70.9248L74.2039 8.2691H75.0816L78.3606 16.802ZM74.6427 9.32962L72.924 13.9008H76.3615L74.6427 9.32962Z" fill="white"/>
<path fill-rule="evenodd" clip-rule="evenodd" d="M78.5613 16.9398H77.3634L76.571 14.8431H72.7145L71.9222 16.9398H70.7243L74.1093 8.13129H75.1763L78.5613 16.9398ZM72.6193 14.7053H76.6663L77.4586 16.802H78.3607L75.0816 8.26911H74.2039L70.9249 16.802H71.8269L72.6193 14.7053ZM72.924 13.9008H76.3615L74.6428 9.32962L72.924 13.9008ZM74.6428 9.72122L73.1231 13.763H76.1625L74.6428 9.72122Z" fill="white"/>
<path d="M63.9825 8.2691H67.0299C67.7979 8.2691 68.4318 8.52509 68.9437 9.03706C69.4557 9.54903 69.7117 10.1829 69.7117 10.9509C69.7117 11.7188 69.4557 12.3527 68.9437 12.8647C68.4318 13.3766 67.7979 13.6326 67.0299 13.6326H64.8358V16.802H63.9825V8.2691ZM64.8358 12.8281H67.0299C67.5541 12.8281 67.9929 12.6574 68.3342 12.3039C68.6877 11.9504 68.8584 11.4994 68.8584 10.9509C68.8584 10.4023 68.6877 9.96348 68.3342 9.60998C67.9929 9.25648 67.5541 9.07363 67.0299 9.07363H64.8358V12.8281Z" fill="white"/>
<path fill-rule="evenodd" clip-rule="evenodd" d="M63.8447 8.13129H67.0299C67.8323 8.13129 68.5019 8.40033 69.0412 8.93961C69.5805 9.47889 69.8495 10.1485 69.8495 10.9509C69.8495 11.7532 69.5805 12.4228 69.0412 12.9621C68.5019 13.5014 67.8323 13.7704 67.0299 13.7704H64.9736V16.9398H63.8447V8.13129ZM64.8358 13.6326H67.0299C67.7979 13.6326 68.4318 13.3766 68.9437 12.8647C69.4557 12.3527 69.7117 11.7188 69.7117 10.9509C69.7117 10.1829 69.4557 9.54904 68.9437 9.03706C68.4318 8.52509 67.7979 8.26911 67.0299 8.26911H63.9825V16.802H64.8358V13.6326ZM68.2368 12.2065C68.561 11.8822 68.7206 11.468 68.7206 10.9509C68.7206 10.4347 68.5616 10.0323 68.2368 9.70744L68.2351 9.70573C67.9211 9.38057 67.5188 9.21145 67.0299 9.21145H64.9736V12.6903H67.0299C67.5212 12.6903 67.9227 12.5317 68.2351 12.2082L68.2368 12.2065ZM64.8358 12.8281V9.07363H67.0299C67.5541 9.07363 67.9929 9.25648 68.3342 9.60998C68.6877 9.96349 68.8584 10.4023 68.8584 10.9509C68.8584 11.4994 68.6877 11.9504 68.3342 12.3039C67.9929 12.6574 67.5541 12.8281 67.0299 12.8281H64.8358Z" fill="white"/>
<path d="M56.909 12.9012V15.9974H61.0535V16.802H56.0557V8.2691H60.9926V9.07363H56.909V12.0967H60.6878V12.9012H56.909Z" fill="white"/>
<path fill-rule="evenodd" clip-rule="evenodd" d="M61.1914 15.8596V16.9398H55.918V8.13129H61.1305V9.21145H57.0469V11.9589H60.8257V13.039H57.0469V15.8596H61.1914ZM56.9091 15.9974V12.9012H60.6879V12.0967H56.9091V9.07363H60.9927V8.26911H56.0558V16.802H61.0536V15.9974H56.9091Z" fill="white"/>
<path d="M51.7931 15.2173V8.2691H52.6464V16.802H51.915L47.161 9.85378V16.802H46.3077V8.2691H47.0391L51.7931 15.2173Z" fill="white"/>
<path fill-rule="evenodd" clip-rule="evenodd" d="M51.6553 8.13132H52.7842V16.9398H51.8423L47.2988 10.2993V16.9398H46.1699V8.13132H47.1118L51.6553 14.7718V8.13132ZM51.7931 15.2173L47.0391 8.26914H46.3077V16.802H47.161V9.85381L51.915 16.802H52.6464V8.26914H51.7931V15.2173Z" fill="white"/>
<path d="M127.485 30.2993L125.04 26.8946H123.166V30.2993H121.906V21.7502H125.25C127.455 21.7502 128.67 22.6651 128.67 24.3299C128.67 25.5898 127.965 26.4297 126.645 26.7446V27.0596L129 30.2993H127.485ZM127.38 24.3299C127.38 23.385 126.645 22.9051 125.22 22.9051H123.571L123.166 23.31V25.7248H125.22C126.645 25.7248 127.38 25.2448 127.38 24.3299Z" fill="white"/>
<path d="M112.702 26.4747H108.157V28.7244L108.547 29.1294H113.512V30.2993H106.897V21.7502H113.362V22.9201H108.547L108.157 23.31V25.3048H112.702V26.4747Z" fill="white"/>
<path d="M95.1726 25.5448L98.4573 30.2993H96.9124L94.0627 26.1897L92.6079 27.6295V30.2993H91.333V21.7502H92.6079V25.8147H92.8929L96.8674 21.7502H98.5623L95.1726 25.0948V25.5448Z" fill="white"/>
<path d="M79.6983 22.7701C78.0935 22.7701 77.0886 24.06 77.0886 26.0248C77.0886 26.9997 77.3286 27.7796 77.7935 28.3795C78.2585 28.9644 78.9034 29.2644 79.6983 29.2644C80.6132 29.2644 81.3182 28.7995 82.0381 27.6146L83.073 28.4095C82.2181 29.8493 81.1682 30.5093 79.7133 30.5093C78.5735 30.5093 77.6286 30.0893 76.8786 29.2494C76.1437 28.3945 75.7688 27.3296 75.7688 26.0248C75.7688 24.7199 76.1437 23.655 76.8786 22.8151C77.6286 21.9602 78.5735 21.5403 79.7133 21.5403C81.1682 21.5403 82.2181 22.2002 83.073 23.64L82.0381 24.4349C81.3032 23.2501 80.6132 22.7701 79.6983 22.7701Z" fill="white"/>
<path d="M65.3958 22.9051L65.0058 23.31V28.7394L65.3958 29.1294H67.4506V30.2993H61.3162V29.1294H63.356L63.761 28.7394V23.31L63.356 22.9051H61.3162V21.7502H67.4506V22.9051H65.3958Z" fill="white"/>
<path d="M53.117 24.3299C53.117 25.9947 51.9021 26.8946 49.6974 26.8946H47.5676V30.2993H46.3077V21.7502H49.6974C51.9021 21.7502 53.117 22.6651 53.117 24.3299ZM47.9726 22.9051L47.5676 23.31V25.7248H49.6674C51.0922 25.7248 51.8121 25.2448 51.8121 24.3299C51.8121 23.385 51.0922 22.9051 49.6674 22.9051H47.9726Z" fill="white"/>
<path d="M57.9809 26.2487C57.9809 26.7092 57.6076 27.0825 57.1471 27.0825C56.6866 27.0825 56.3133 26.7092 56.3133 26.2487C56.3133 25.7882 56.6866 25.4149 57.1471 25.4149C57.6076 25.4149 57.9809 25.7882 57.9809 26.2487Z" fill="white"/>
<path d="M72.4335 26.2487C72.4335 26.7092 72.0602 27.0825 71.5997 27.0825C71.1392 27.0825 70.7659 26.7092 70.7659 26.2487C70.7659 25.7882 71.1392 25.4149 71.5997 25.4149C72.0602 25.4149 72.4335 25.7882 72.4335 26.2487Z" fill="white"/>
<path d="M87.9978 26.2487C87.9978 26.7092 87.6245 27.0825 87.164 27.0825C86.7035 27.0825 86.3302 26.7092 86.3302 26.2487C86.3302 25.7882 86.7035 25.4149 87.164 25.4149C87.6245 25.4149 87.9978 25.7882 87.9978 26.2487Z" fill="white"/>
<path d="M103.562 26.2487C103.562 26.7092 103.189 27.0825 102.728 27.0825C102.268 27.0825 101.895 26.7092 101.895 26.2487C101.895 25.7882 102.268 25.4149 102.728 25.4149C103.189 25.4149 103.562 25.7882 103.562 26.2487Z" fill="white"/>
<path d="M118.571 26.2487C118.571 26.7092 118.197 27.0825 117.737 27.0825C117.276 27.0825 116.903 26.7092 116.903 26.2487C116.903 25.7882 117.276 25.4149 117.737 25.4149C118.197 25.4149 118.571 25.7882 118.571 26.2487Z" fill="white"/>
<defs>
<linearGradient id="paint0_linear_17_1659" x1="16.8141" y1="14.3333" x2="16.8141" y2="36.9359" gradientUnits="userSpaceOnUse">
<stop stop-color="#58B7E6"/>
<stop offset="0.510417" stop-color="#838DF1"/>
<stop offset="1" stop-color="#7BA0F0"/>
</linearGradient>
<linearGradient id="paint1_linear_17_1659" x1="28.9423" y1="23.7051" x2="28.9423" y2="38.5897" gradientUnits="userSpaceOnUse">
<stop stop-color="#58B7E6"/>
<stop offset="0.510417" stop-color="#838DF1"/>
<stop offset="1" stop-color="#7BA0F0"/>
</linearGradient>
<linearGradient id="paint2_linear_17_1659" x1="16.9519" y1="-6.10352e-05" x2="16.9519" y2="12.1281" gradientUnits="userSpaceOnUse">
<stop stop-color="#58B7E6"/>
<stop offset="0.510417" stop-color="#838DF1"/>
<stop offset="1" stop-color="#7BA0F0"/>
</linearGradient>
<linearGradient id="paint3_linear_17_1659" x1="29.5327" y1="27.8397" x2="29.5327" y2="35.6357" gradientUnits="userSpaceOnUse">
<stop stop-color="#58B7E6"/>
<stop offset="0.510417" stop-color="#838DF1"/>
<stop offset="1" stop-color="#7BA0F0"/>
</linearGradient>
</defs>
</svg>
