<svg width="406" height="723" viewBox="0 0 406 723" fill="none" xmlns="http://www.w3.org/2000/svg">
<g opacity="0.4">
<path opacity="0.3" d="M402.625 514.172V143.062M324.332 514.172V143.062M246.038 514.172V143.062M166.962 513.39V142.279M88.6684 512.607V141.496M10.375 511.824V140.713" stroke="#334155" stroke-width="4"/>
<path d="M10.375 84.2437V89.4009C10.3749 95.8585 11.9691 102.216 15.0161 107.91C18.0631 113.603 22.4685 118.456 27.8415 122.038L71.3577 151.049C76.7306 154.631 81.136 159.485 84.1829 165.178C87.2299 170.871 88.8242 177.229 88.8242 183.687V188.844M10.375 471.59V476.748C10.375 483.206 11.9692 489.563 15.0162 495.257C18.0631 500.95 22.4686 505.803 27.8415 509.385L71.3577 538.396C76.7306 541.978 81.136 546.831 84.1829 552.524C87.2299 558.218 88.8242 564.576 88.8242 571.033V576.19M88.825 368.625V373.782C88.825 380.24 90.4193 386.597 93.4664 392.291C96.5135 397.984 100.919 402.838 106.292 406.42L149.809 435.43C155.182 439.012 159.587 443.865 162.634 449.559C165.681 455.252 167.275 461.61 167.275 468.067V473.225M245.726 128.371V133.529C245.726 139.987 247.32 146.344 250.367 152.038C253.414 157.731 257.819 162.584 263.192 166.166L306.709 195.177C312.082 198.759 316.487 203.612 319.534 209.305C322.581 214.999 324.176 221.357 324.176 227.814V232.971M245.725 514.085V519.242C245.725 525.699 244.131 532.057 241.084 537.751C238.037 543.444 233.631 548.297 228.259 551.879L184.742 580.89C179.369 584.472 174.964 589.325 171.917 595.018C168.869 600.712 167.275 607.069 167.275 613.527V618.685" stroke="#334155" stroke-width="4"/>
<path d="M245.725 514.085V519.242C245.725 525.699 244.131 532.057 241.084 537.751C238.037 543.444 233.631 548.297 228.259 551.879L184.742 580.89C179.369 584.472 174.964 589.325 171.917 595.018C168.869 600.712 167.275 607.069 167.275 613.527V618.685V505.912M324.175 376.796V381.954C324.175 388.411 322.581 394.769 319.534 400.462C316.486 406.156 312.081 411.009 306.708 414.591L263.191 443.602C257.819 447.184 253.413 452.037 250.366 457.731C247.319 463.424 245.725 469.782 245.725 476.239V481.396V437.269M324.175 594.169V599.326C324.175 605.784 322.581 612.141 319.534 617.835C316.486 623.528 312.081 628.381 306.708 631.963L263.191 660.974C257.818 664.556 253.413 669.409 250.366 675.103C247.319 680.796 245.725 687.154 245.725 693.612V698.765V514.084M402.626 430.73V462.038C402.626 468.496 401.031 474.854 397.984 480.547C394.937 486.24 390.532 491.093 385.159 494.675L341.642 523.686C336.269 527.268 331.864 532.121 328.817 537.815C325.77 543.508 324.176 549.866 324.176 556.323V561.48V376.796M167.274 651.371V656.529C167.274 662.987 165.68 669.344 162.633 675.038C159.586 680.731 155.181 685.584 149.808 689.166L106.291 718.174C100.919 721.757 96.5138 726.611 93.4668 732.305C90.4198 737.999 88.8251 744.356 88.8242 750.814V755.974M402.625 232.971C402.625 217.355 392.632 203.491 377.817 198.552L270.533 162.791C255.718 157.853 245.725 143.988 245.725 128.371V404.581C245.725 388.965 235.732 375.1 220.917 370.162L115.646 335.072C99.6287 329.732 88.825 314.743 88.825 297.859V273.831M245.725 95.6848C245.725 80.405 235.112 67.1766 220.197 63.8616L35.9018 22.9071C20.9869 19.593 10.375 6.36373 10.375 -8.91523V51.5555M10.375 273.831V228.069M88.8242 335.937V221.531M167.275 747.8V651.371M10.375 195.381V84.2437M10.375 -41.6035V-89M402.625 747.8V430.731M324.176 345.744V265.66M402.625 398.044V265.66M245.725 747.8V731.452M88.8242 746.164V608.878M10.375 747.8V471.59M10.375 438.904V306.519" stroke="#334155" stroke-width="4"/>
<path d="M10.375 203.553C5.86158 203.553 2.20273 207.212 2.20273 211.725C2.20273 216.238 5.86158 219.897 10.375 219.897C14.8884 219.897 18.5473 216.238 18.5473 211.725C18.5473 207.212 14.8884 203.553 10.375 203.553Z" fill="#1E293B" stroke="#334155" stroke-width="4"/>
<path d="M88.8242 197.015C84.3108 197.015 80.652 200.674 80.652 205.187C80.652 209.701 84.3108 213.36 88.8242 213.36C93.3376 213.36 96.9965 209.701 96.9965 205.187C96.9965 200.674 93.3376 197.015 88.8242 197.015Z" fill="#1E293B" stroke="#334155" stroke-width="4"/>
<path d="M88.8242 344.109C84.3108 344.109 80.652 347.768 80.652 352.281C80.652 356.795 84.3108 360.453 88.8242 360.453C93.3376 360.453 96.9965 356.795 96.9965 352.281C96.9965 347.768 93.3376 344.109 88.8242 344.109Z" fill="#1E293B" stroke="#334155" stroke-width="4"/>
<path d="M245.725 412.753C241.212 412.753 237.553 416.412 237.553 420.925C237.553 425.438 241.212 429.097 245.725 429.097C250.238 429.097 253.897 425.438 253.897 420.925C253.897 416.412 250.238 412.753 245.725 412.753Z" fill="#1E293B" stroke="#334155" stroke-width="4"/>
<path d="M324.176 352.28C319.662 352.28 316.003 355.939 316.003 360.453C316.003 364.966 319.662 368.625 324.176 368.625C328.689 368.625 332.348 364.966 332.348 360.453C332.348 355.939 328.689 352.28 324.176 352.28Z" fill="#0EA5E9" fill-opacity="0.42" stroke="#0EA5E9" stroke-width="4"/>
<path d="M10.1723 60C5.65887 60 2 63.6588 2 68.1723C2 72.6857 5.65887 76.3445 10.1723 76.3445C14.6857 76.3445 18.3445 72.6857 18.3445 68.1723C18.3445 63.6588 14.6857 60 10.1723 60Z" fill="#0EA5E9" fill-opacity="0.42" stroke="#0EA5E9" stroke-width="4"/>
<path d="M245.172 104C240.659 104 237 107.659 237 112.172C237 116.686 240.659 120.345 245.172 120.345C249.686 120.345 253.345 116.686 253.345 112.172C253.345 107.659 249.686 104 245.172 104Z" fill="#0EA5E9" fill-opacity="0.42" stroke="#0EA5E9" stroke-width="4"/>
<path d="M245.725 489.568C241.212 489.568 237.553 493.227 237.553 497.74C237.553 502.254 241.212 505.912 245.725 505.912C250.238 505.912 253.897 502.254 253.897 497.74C253.897 493.227 250.238 489.568 245.725 489.568Z" fill="#1E293B" stroke="#334155" stroke-width="4"/>
<path d="M245.725 706.94C241.212 706.94 237.553 710.599 237.553 715.112C237.553 719.626 241.212 723.285 245.725 723.285C250.238 723.285 253.897 719.626 253.897 715.112C253.897 710.599 250.238 706.94 245.725 706.94Z" stroke="#334155" stroke-width="4"/>
<path d="M167.275 626.856C162.762 626.856 159.103 630.515 159.103 635.028C159.103 639.542 162.762 643.201 167.275 643.201C171.788 643.201 175.447 639.542 175.447 635.028C175.447 630.515 171.788 626.856 167.275 626.856Z" stroke="#334155" stroke-width="4"/>
<path d="M88.8242 584.362C84.3108 584.362 80.652 588.021 80.652 592.534C80.652 597.047 84.3108 600.706 88.8242 600.706C93.3376 600.706 96.9965 597.047 96.9965 592.534C96.9965 588.021 93.3376 584.362 88.8242 584.362Z" stroke="#334155" stroke-width="4"/>
<path d="M167.275 481.396C162.762 481.396 159.103 485.055 159.103 489.569C159.103 494.082 162.762 497.741 167.275 497.741C171.788 497.741 175.447 494.082 175.447 489.569C175.447 485.055 171.788 481.396 167.275 481.396Z" fill="#1E293B" stroke="#334155" stroke-width="4"/>
<path d="M10.375 447.075C5.86158 447.075 2.20273 450.734 2.20273 455.247C2.20273 459.761 5.86158 463.419 10.375 463.419C14.8884 463.419 18.5473 459.761 18.5473 455.247C18.5473 450.734 14.8884 447.075 10.375 447.075Z" fill="#1E293B" stroke="#334155" stroke-width="4"/>
<path d="M10.375 282.003C5.86158 282.003 2.20273 285.662 2.20273 290.175C2.20273 294.688 5.86158 298.347 10.375 298.347C14.8884 298.347 18.5473 294.688 18.5473 290.175C18.5473 285.662 14.8884 282.003 10.375 282.003Z" fill="#0EA5E9" fill-opacity="0.42" stroke="#0EA5E9" stroke-width="4"/>
<path d="M324.176 241.143C319.662 241.143 316.003 244.802 316.003 249.315C316.003 253.829 319.662 257.487 324.176 257.487C328.689 257.487 332.348 253.829 332.348 249.315C332.348 244.802 328.689 241.143 324.176 241.143Z" fill="#1E293B" stroke="#334155" stroke-width="4"/>
<path d="M402.625 241.143C398.112 241.143 394.453 244.802 394.453 249.315C394.453 253.829 398.112 257.487 402.625 257.487C407.138 257.487 410.797 253.829 410.797 249.315C410.797 244.802 407.138 241.143 402.625 241.143Z" fill="#1E293B" stroke="#334155" stroke-width="4"/>
<path d="M402.625 406.215C398.112 406.215 394.453 409.874 394.453 414.387C394.453 418.901 398.112 422.56 402.625 422.56C407.138 422.56 410.797 418.901 410.797 414.387C410.797 409.874 407.138 406.215 402.625 406.215Z" fill="#1E293B" stroke="#334155" stroke-width="4"/>
<path d="M324.176 569.652C319.662 569.652 316.003 573.311 316.003 577.824C316.003 582.338 319.662 585.996 324.176 585.996C328.689 585.996 332.348 582.338 332.348 577.824C332.348 573.311 328.689 569.652 324.176 569.652Z" stroke="#334155" stroke-width="4"/>
</g>
</svg>
