<svg width="184" height="195" viewBox="0 0 184 195" fill="none" xmlns="http://www.w3.org/2000/svg">
<path d="M13.3553 73.0861H149.579C154.946 73.0861 159.296 77.4364 159.296 82.8028V125.54C159.296 153.034 137.007 175.322 109.513 175.322H53.4211C25.927 175.322 3.63858 153.034 3.63858 125.54V82.8028C3.63858 77.4364 7.9889 73.0861 13.3553 73.0861Z" stroke="url(#paint0_linear_16_1204)" stroke-width="7.27716"/>
<path d="M140.231 190.612C162.155 190.612 179.928 172.839 179.928 150.914C179.928 128.99 162.155 111.217 140.231 111.217C118.306 111.217 100.533 128.99 100.533 150.914C100.533 172.839 118.306 190.612 140.231 190.612Z" fill="#040407" stroke="url(#paint1_linear_16_1204)" stroke-width="7.27716"/>
<mask id="path-3-inside-1_16_1204" fill="white">
<path fill-rule="evenodd" clip-rule="evenodd" d="M38.7306 -0.00012207C35.0426 -0.00012207 32.0529 2.98957 32.0529 6.67753V18.6971H30.7174C15.2279 18.6971 2.67128 31.2537 2.67128 46.7432C2.67128 53.3815 8.0527 58.7629 14.691 58.7629H60.099L60.1458 58.7629H104.171H120.198H149.579C156.218 58.7629 161.599 53.3814 161.599 46.7431C161.599 31.2537 149.042 18.697 133.553 18.697H129.546H128.211V6.67752C128.211 2.98956 125.221 -0.00012207 121.533 -0.00012207C117.845 -0.00012207 114.855 2.98957 114.855 6.67753V18.697H104.171H88.1448V6.67752C88.1448 2.98956 85.1551 -0.00012207 81.4671 -0.00012207C77.7792 -0.00012207 74.7895 2.98957 74.7895 6.67753V18.697H45.4083V18.6971H45.4082V6.67752C45.4082 2.98956 42.4186 -0.00012207 38.7306 -0.00012207Z"/>
</mask>
<path d="M32.0529 18.6971V25.9742H39.3301V18.6971H32.0529ZM60.099 58.7629L60.099 66.0401L60.1073 66.0401L60.099 58.7629ZM60.1458 58.7629L60.1458 51.4857L60.1374 51.4857L60.1458 58.7629ZM128.211 18.697H120.933V25.9742H128.211V18.697ZM114.855 18.697V25.9742H122.132V18.697H114.855ZM88.1448 18.697H80.8676V25.9742H88.1448V18.697ZM74.7895 18.697V25.9742H82.0666V18.697H74.7895ZM45.4083 18.697V11.4199H38.1311V18.697H45.4083ZM45.4083 18.6971V25.9742H52.6854V18.6971H45.4083ZM45.4082 18.6971H38.1311V25.9742H45.4082V18.6971ZM39.3301 6.67753C39.3301 7.00862 39.0617 7.27704 38.7306 7.27704V-7.27728C31.0236 -7.27728 24.7758 -1.02949 24.7758 6.67753H39.3301ZM39.3301 18.6971V6.67753H24.7758V18.6971H39.3301ZM30.7174 25.9742H32.0529V11.4199H30.7174V25.9742ZM9.94844 46.7432C9.94844 35.2728 19.247 25.9742 30.7174 25.9742V11.4199C11.2089 11.4199 -4.60588 27.2347 -4.60588 46.7432H9.94844ZM14.691 51.4858C12.0718 51.4858 9.94844 49.3624 9.94844 46.7432H-4.60588C-4.60588 57.4006 4.03364 66.0401 14.691 66.0401V51.4858ZM60.099 51.4858H14.691V66.0401H60.099V51.4858ZM60.1374 51.4857L60.0907 51.4858L60.1073 66.0401L60.1541 66.04L60.1374 51.4857ZM104.171 51.4857H60.1458V66.04H104.171V51.4857ZM120.198 51.4857H104.171V66.04H120.198V51.4857ZM149.579 51.4857H120.198V66.04H149.579V51.4857ZM154.322 46.7431C154.322 49.3624 152.198 51.4857 149.579 51.4857V66.04C160.237 66.04 168.876 57.4005 168.876 46.7431H154.322ZM133.553 25.9742C145.023 25.9742 154.322 35.2728 154.322 46.7431H168.876C168.876 27.2346 153.061 11.4199 133.553 11.4199V25.9742ZM129.546 25.9742H133.553V11.4199H129.546V25.9742ZM128.211 25.9742H129.546V11.4199H128.211V25.9742ZM120.933 6.67752V18.697H135.488V6.67752H120.933ZM121.533 7.27704C121.202 7.27704 120.933 7.00863 120.933 6.67752H135.488C135.488 -1.02951 129.24 -7.27728 121.533 -7.27728V7.27704ZM122.132 6.67753C122.132 7.00863 121.864 7.27704 121.533 7.27704V-7.27728C113.826 -7.27728 107.578 -1.02949 107.578 6.67753H122.132ZM122.132 18.697V6.67753H107.578V18.697H122.132ZM104.171 25.9742H114.855V11.4199H104.171V25.9742ZM88.1448 25.9742H104.171V11.4199H88.1448V25.9742ZM80.8676 6.67752V18.697H95.4219V6.67752H80.8676ZM81.4671 7.27704C81.136 7.27704 80.8676 7.00863 80.8676 6.67752H95.4219C95.4219 -1.02951 89.1742 -7.27728 81.4671 -7.27728V7.27704ZM82.0666 6.67753C82.0666 7.00863 81.7982 7.27704 81.4671 7.27704V-7.27728C73.7601 -7.27728 67.5123 -1.02949 67.5123 6.67753H82.0666ZM82.0666 18.697V6.67753H67.5123V18.697H82.0666ZM45.4083 25.9742H74.7895V11.4199H45.4083V25.9742ZM52.6854 18.6971V18.697H38.1311V18.6971H52.6854ZM45.4082 25.9742H45.4083V11.4199H45.4082V25.9742ZM38.1311 6.67752V18.6971H52.6854V6.67752H38.1311ZM38.7306 7.27704C38.3995 7.27704 38.1311 7.00862 38.1311 6.67752H52.6854C52.6854 -1.0295 46.4376 -7.27728 38.7306 -7.27728V7.27704Z" fill="url(#paint2_linear_16_1204)" mask="url(#path-3-inside-1_16_1204)"/>
<path d="M124.204 134.888L139.941 172.661L145.528 156.212L161.977 150.625L124.204 134.888Z" stroke="url(#paint3_linear_16_1204)" stroke-width="4.04287" stroke-linecap="round" stroke-linejoin="round"/>
<defs>
<linearGradient id="paint0_linear_16_1204" x1="81.4672" y1="69.4475" x2="81.4672" y2="178.961" gradientUnits="userSpaceOnUse">
<stop stop-color="#58B7E6"/>
<stop offset="0.510417" stop-color="#838DF1"/>
<stop offset="1" stop-color="#7BA0F0"/>
</linearGradient>
<linearGradient id="paint1_linear_16_1204" x1="140.231" y1="114.855" x2="140.231" y2="186.974" gradientUnits="userSpaceOnUse">
<stop stop-color="#58B7E6"/>
<stop offset="0.510417" stop-color="#838DF1"/>
<stop offset="1" stop-color="#7BA0F0"/>
</linearGradient>
<linearGradient id="paint2_linear_16_1204" x1="82.1351" y1="-0.00012207" x2="82.1351" y2="58.7629" gradientUnits="userSpaceOnUse">
<stop stop-color="#58B7E6"/>
<stop offset="0.510417" stop-color="#838DF1"/>
<stop offset="1" stop-color="#7BA0F0"/>
</linearGradient>
<linearGradient id="paint3_linear_16_1204" x1="143.091" y1="134.888" x2="143.091" y2="172.661" gradientUnits="userSpaceOnUse">
<stop stop-color="#58B7E6"/>
<stop offset="0.510417" stop-color="#838DF1"/>
<stop offset="1" stop-color="#7BA0F0"/>
</linearGradient>
</defs>
</svg>
